<svg xmlns="http://www.w3.org/2000/svg" xmlns:xlink="http://www.w3.org/1999/xlink" width="2369.62" height="1188"><g transform="translate(620 -12)"><path d="M-60 465c0-2.76 2.24-5 5-5h170c2.76 0 5 2.24 5 5v110c0 2.76-2.24 5-5 5H-55c-2.76 0-5-2.24-5-5z" stroke="#666" stroke-width="2" fill="#ff8f80"/><use xlink:href="#a" transform="matrix(1,0,0,1,-40,460) translate(41.27499999999999 63.6)"/><path d="M740 285c0-2.76 2.24-5 5-5h170c2.76 0 5 2.24 5 5v130c0 2.76-2.24 5-5 5H745c-2.76 0-5-2.24-5-5z" stroke="#666" stroke-width="2" fill="#ff8f80"/><use xlink:href="#b" transform="matrix(1,0,0,1,760,280) translate(32.62499999999999 73.60000000000001)"/><path d="M920 310h155c2.76 0 5-2.24 5-5v-30c0-2.76 2.24-5 5-5h155" stroke="#999" stroke-width="2" fill="none"/><path d="M942.24 310l-21.8 10.9-.44-.9v-1.12l17.76-8.88-17.76-8.88V300l.45-.9z" fill="#999"/><path d="M960 310l-.5 3.16-1.43 2.75-2.16 2.17-2.74 1.42-3.16.5-3.16-.5-2.75-1.43-2.17-2.16-1.42-2.74-.5-3.16.5-3.16 1.43-2.75 2.16-2.17 2.74-1.42 3.16-.5 3.16.5 2.75 1.43 2.17 2.16 1.42 2.74z" fill="#fff"/><path d="M953.48 299.55l3.02 1.56 2.4 2.4 1.55 3.02.54 3.32-1 .16 1 .16-.55 3.32-1.56 3.02-2.4 2.4-3.02 1.55-3.48.56-3.48-.55-3.02-1.56-2.4-2.4-1.55-3.02L939 310l.55-3.48 1.56-3.02 2.4-2.4 3.02-1.55L950 299zm-6.32 1.92l-2.47 1.28-1.95 1.94-1.28 2.46L941 310l.47 2.84 1.28 2.47 1.94 1.95 2.46 1.28 2.84.46 2.84-.47 2.47-1.28 1.95-1.94 1.28-2.46.46-2.84-.47-2.84-1.28-2.47-1.94-1.95-2.46-1.28L950 301zM1231 280h-2v-20h2zM1221 280h-2v-20h2z" fill="#999"/><path d="M1240 205c0-2.76 2.24-5 5-5h170c2.76 0 5 2.24 5 5v130c0 2.76-2.24 5-5 5h-170c-2.76 0-5-2.24-5-5z" stroke="#666" stroke-width="2" fill="#fff"/><use xlink:href="#c" transform="matrix(1,0,0,1,1260,200) translate(18.049999999999997 73.60000000000001)"/><use xlink:href="#d" transform="matrix(1,0,0,1,1260,200) translate(70 73.60000000000001)"/><path d="M920 390h155c2.76 0 5 2.24 5 5v80c0 2.76 2.24 5 5 5h155" stroke="#999" stroke-width="2" fill="none"/><path d="M942.24 390l-21.8 10.9-.44-.9v-1.12l17.76-8.88-17.76-8.88V380l.45-.9z" fill="#999"/><path d="M960 390l-.5 3.16-1.43 2.75-2.16 2.17-2.74 1.42-3.16.5-3.16-.5-2.75-1.43-2.17-2.16-1.42-2.74-.5-3.16.5-3.16 1.43-2.75 2.16-2.17 2.74-1.42 3.16-.5 3.16.5 2.75 1.43 2.17 2.16 1.42 2.74z" fill="#fff"/><path d="M953.48 379.55l3.02 1.56 2.4 2.4 1.55 3.02.54 3.32-1 .16 1 .16-.55 3.32-1.56 3.02-2.4 2.4-3.02 1.55-3.48.56-3.48-.55-3.02-1.56-2.4-2.4-1.55-3.02L939 390l.55-3.48 1.56-3.02 2.4-2.4 3.02-1.55L950 379zm-6.32 1.92l-2.47 1.28-1.95 1.94-1.28 2.46L941 390l.47 2.84 1.28 2.47 1.94 1.95 2.46 1.28 2.84.46 2.84-.47 2.47-1.28 1.95-1.94 1.28-2.46.46-2.84-.47-2.84-1.28-2.47-1.94-1.95-2.46-1.28L950 381zM1231 490h-2v-20h2zM1221 490h-2v-20h2z" fill="#999"/><path d="M1240 415c0-2.76 2.24-5 5-5h170c2.76 0 5 2.24 5 5v130c0 2.76-2.24 5-5 5h-170c-2.76 0-5-2.24-5-5z" stroke="#666" stroke-width="2" fill="#fff"/><use xlink:href="#e" transform="matrix(1,0,0,1,1260,410) translate(44.55 73.60000000000001)"/><path d="M740 665c0-2.76 2.24-5 5-5h170c2.76 0 5 2.24 5 5v130c0 2.76-2.24 5-5 5H745c-2.76 0-5-2.24-5-5z" stroke="#666" stroke-width="2" fill="#ff8f80"/><use xlink:href="#f" transform="matrix(1,0,0,1,760,660) translate(32.62499999999999 73.60000000000001)"/><path d="M1240 625c0-2.76 2.24-5 5-5h170c2.76 0 5 2.24 5 5v130c0 2.76-2.24 5-5 5h-170c-2.76 0-5-2.24-5-5z" stroke="#666" stroke-width="2" fill="#fff"/><use xlink:href="#c" transform="matrix(1,0,0,1,1260,620) translate(18.049999999999997 73.60000000000001)"/><use xlink:href="#d" transform="matrix(1,0,0,1,1260,620) translate(70 73.60000000000001)"/><path d="M920 690h320" stroke="#999" stroke-width="2" fill="none"/><path d="M942.24 690l-21.8 10.9-.44-.9v-1.12l17.76-8.88-17.76-8.88V680l.45-.9z" fill="#999"/><path d="M960 690l-.5 3.16-1.43 2.75-2.16 2.17-2.74 1.42-3.16.5-3.16-.5-2.75-1.43-2.17-2.16-1.42-2.74-.5-3.16.5-3.16 1.43-2.75 2.16-2.17 2.74-1.42 3.16-.5 3.16.5 2.75 1.43 2.17 2.16 1.42 2.74z" fill="#fff"/><path d="M953.48 679.55l3.02 1.56 2.4 2.4 1.55 3.02.54 3.32-1 .16 1 .16-.55 3.32-1.56 3.02-2.4 2.4-3.02 1.55-3.48.56-3.48-.55-3.02-1.56-2.4-2.4-1.55-3.02L939 690l.55-3.48 1.56-3.02 2.4-2.4 3.02-1.55L950 679zm-6.32 1.92l-2.47 1.28-1.95 1.94-1.28 2.46L941 690l.47 2.84 1.28 2.47 1.94 1.95 2.46 1.28 2.84.46 2.84-.47 2.47-1.28 1.95-1.94 1.28-2.46.46-2.84-.47-2.84-1.28-2.47-1.94-1.95-2.46-1.28L950 681zM1231 700h-2v-20h2zM1221 700h-2v-20h2z" fill="#999"/><path d="M1240 835c0-2.76 2.24-5 5-5h170c2.76 0 5 2.24 5 5v130c0 2.76-2.24 5-5 5h-170c-2.76 0-5-2.24-5-5z" stroke="#666" stroke-width="2" fill="#fff"/><use xlink:href="#e" transform="matrix(1,0,0,1,1260,830) translate(44.55 73.60000000000001)"/><path d="M920 770h155c2.76 0 5 2.24 5 5v80c0 2.76 2.24 5 5 5h155" stroke="#999" stroke-width="2" fill="none"/><path d="M942.24 770l-21.8 10.9-.44-.9v-1.12l17.76-8.88-17.76-8.88V760l.45-.9z" fill="#999"/><path d="M960 770l-.5 3.16-1.43 2.75-2.16 2.17-2.74 1.42-3.16.5-3.16-.5-2.75-1.43-2.17-2.16-1.42-2.74-.5-3.16.5-3.16 1.43-2.75 2.16-2.17 2.74-1.42 3.16-.5 3.16.5 2.75 1.43 2.17 2.16 1.42 2.74z" fill="#fff"/><path d="M953.48 759.55l3.02 1.56 2.4 2.4 1.55 3.02.54 3.32-1 .16 1 .16-.55 3.32-1.56 3.02-2.4 2.4-3.02 1.55-3.48.56-3.48-.55-3.02-1.56-2.4-2.4-1.55-3.02L939 770l.55-3.48 1.56-3.02 2.4-2.4 3.02-1.55L950 759zm-6.32 1.92l-2.47 1.28-1.95 1.94-1.28 2.46L941 770l.47 2.84 1.28 2.47 1.94 1.95 2.46 1.28 2.84.46 2.84-.47 2.47-1.28 1.95-1.94 1.28-2.46.46-2.84-.47-2.84-1.28-2.47-1.94-1.95-2.46-1.28L950 761zM1231 870h-2v-20h2zM1221 870h-2v-20h2z" fill="#999"/><path d="M740 1045c0-2.76 2.24-5 5-5h170c2.76 0 5 2.24 5 5v130c0 2.76-2.24 5-5 5H745c-2.76 0-5-2.24-5-5z" stroke="#666" stroke-width="2" fill="#a3d977"/><use xlink:href="#g" transform="matrix(1,0,0,1,760,1040) translate(26.049999999999997 62.8)"/><use xlink:href="#h" transform="matrix(1,0,0,1,760,1040) translate(30.049999999999997 84.4)"/><path d="M1240 1045c0-2.76 2.24-5 5-5h170c2.76 0 5 2.24 5 5v130c0 2.76-2.24 5-5 5h-170c-2.76 0-5-2.24-5-5z" stroke="#666" stroke-width="2" fill="#fff"/><use xlink:href="#i" transform="matrix(1,0,0,1,1260,1040) translate(40.625 73.60000000000001)"/><path d="M920 1110h320" stroke="#999" stroke-width="2" fill="none"/><path d="M942.24 1110l-21.8 10.9-.44-.9v-1.12l17.76-8.88-17.76-8.88V1100l.45-.9z" fill="#999"/><path d="M960 1110l-.5 3.16-1.43 2.75-2.16 2.17-2.74 1.42-3.16.5-3.16-.5-2.75-1.43-2.17-2.16-1.42-2.74-.5-3.16.5-3.16 1.43-2.75 2.16-2.17 2.74-1.42 3.16-.5 3.16.5 2.75 1.43 2.17 2.16 1.42 2.74z" fill="#fff"/><path d="M953.48 1099.55l3.02 1.56 2.4 2.4 1.55 3.02.54 3.32-1 .16 1 .16-.55 3.32-1.56 3.02-2.4 2.4-3.02 1.55-3.48.56-3.48-.55-3.02-1.56-2.4-2.4-1.55-3.02-.56-3.48.55-3.48 1.56-3.02 2.4-2.4 3.02-1.55 3.48-.56zm-6.32 1.92l-2.47 1.28-1.95 1.94-1.28 2.46-.46 2.84.47 2.84 1.28 2.47 1.94 1.95 2.46 1.28 2.84.46 2.84-.47 2.47-1.28 1.95-1.94 1.28-2.46.46-2.84-.47-2.84-1.28-2.47-1.94-1.95-2.46-1.28-2.84-.46zM1231 1120h-2v-20h2zM1221 1120h-2v-20h2z" fill="#999"/><path d="M280 1045c0-2.76 2.24-5 5-5h170c2.76 0 5 2.24 5 5v130c0 2.76-2.24 5-5 5H285c-2.76 0-5-2.24-5-5z" stroke="#666" stroke-width="2" fill="#a3d977"/><use xlink:href="#j" transform="matrix(1,0,0,1,300,1040) translate(36.099999999999994 73.60000000000001)"/><path d="M460 1110h280" stroke="#999" stroke-width="2" fill="none"/><path d="M471 1120h-2v-20h2zM481 1120h-2v-20h2zM740 1100v1.12l-17.76 8.88 17.76 8.88v1.12l-.45.9-21.8-10.9 21.8-10.9z" fill="#999"/><path d="M720 1110l-.5 3.16-1.43 2.75-2.16 2.17-2.74 1.42-3.16.5-3.16-.5-2.75-1.43-2.17-2.16-1.42-2.74-.5-3.16.5-3.16 1.43-2.75 2.16-2.17 2.74-1.42 3.16-.5 3.16.5 2.75 1.43 2.17 2.16 1.42 2.74z" fill="#fff"/><path d="M713.48 1099.55l3.02 1.56 2.4 2.4 1.55 3.02.54 3.32-1 .16 1 .16-.55 3.32-1.56 3.02-2.4 2.4-3.02 1.55-3.48.56-3.48-.55-3.02-1.56-2.4-2.4-1.55-3.02-.56-3.48.55-3.48 1.56-3.02 2.4-2.4 3.02-1.55 3.48-.56zm-6.32 1.92l-2.47 1.28-1.95 1.94-1.28 2.46-.46 2.84.47 2.84 1.28 2.47 1.94 1.95 2.46 1.28 2.84.46 2.84-.47 2.47-1.28 1.95-1.94 1.28-2.46.46-2.84-.47-2.84-1.28-2.47-1.94-1.95-2.46-1.28-2.84-.46z" fill="#999"/><path d="M32 37c0-2.76 2.24-5 5-5h838c2.76 0 5 2.24 5 5v38c0 2.76-2.24 5-5 5H37c-2.76 0-5-2.24-5-5z" fill="none"/><use xlink:href="#k" transform="matrix(1,0,0,1,32,32) translate(0 31.11111111111111)"/><path d="M31.33 80H1728" stroke="#999" stroke-width="2" fill="none"/><path d="M1040 37c0-2.76 2.24-5 5-5h678c2.76 0 5 2.24 5 5v38c0 2.76-2.24 5-5 5h-678c-2.76 0-5-2.24-5-5z" fill="none"/><use xlink:href="#l" transform="matrix(1,0,0,1,1040,32) translate(358.0000000000033 28.4444444444444)"/><use xlink:href="#m" transform="matrix(1,0,0,1,1040,32) translate(403.5555555555584 28.4444444444444)"/><use xlink:href="#n" transform="matrix(1,0,0,1,1040,32) translate(494.79012345679206 28.4444444444444)"/><use xlink:href="#o" transform="matrix(1,0,0,1,1040,32) translate(519.049382716051 28.4444444444444)"/><use xlink:href="#p" transform="matrix(1,0,0,1,1040,32) translate(613.9259259259267 28.4444444444444)"/><use xlink:href="#q" transform="matrix(1,0,0,1,1040,32) translate(638.6172839506178 28.4444444444444)"/><path d="M90 920h35c2.76 0 5 2.24 5 5v60c0 2.76-2.24 5-5 5H45c-2.76 0-5 2.24-5 5s2.24 5 5 5h360c2.76 0 5 2.24 5 5v10c0 2.76-2.24 5-5 5H245c-2.76 0-5 2.24-5 5v80c0 2.76 2.24 5 5 5h35" stroke="#999" stroke-width="2" fill="none"/><path d="M280 1110l-14.27 4.64v-9.28z" fill="#999"/><path d="M280 1108.95v2.1l-15.27 4.96v-12zm-13.27 4.3l10.03-3.25-10.03-3.26z" fill="#999"/><path fill="#fff" d="M163.32 989.2h93.75v21.6h-93.75z"/><use xlink:href="#r" transform="matrix(1,0,0,1,163.32012195121956,989.2) translate(0.005000000000002558 14.4)"/><path d="M740 350H375c-2.76 0-5 2.24-5 5v685" stroke="#999" stroke-width="2" fill="none"/><path d="M370 1040l-4.64-14.27h9.28z" fill="#999"/><path d="M371.05 1040h-2.1l-4.96-15.27h12zm-4.3-13.27l3.25 10.03 3.26-10.03z" fill="#999"/><path d="M-158.7 264.83c-.72-2.67.94-4.83 3.7-4.83H-5c2.76 0 4.42 2.16 3.7 4.83l-32.58 122.2c-.7 2.68-3.53 4.85-6.3 4.85h-79.65c-2.76 0-5.58-2.17-6.3-4.84z" stroke="#666" stroke-width="2" fill="#fff"/><use xlink:href="#s" transform="matrix(1,0,0,1,-160,260) translate(48.55499999999999 47.4)"/><use xlink:href="#t" transform="matrix(1,0,0,1,-160,260) translate(43.55499999999999 69)"/><use xlink:href="#u" transform="matrix(1,0,0,1,-160,260) translate(39.105 90.60000000000001)"/><use xlink:href="#v" transform="matrix(1,0,0,1,-160,260) translate(80.005 90.60000000000001)"/><path d="M30 460v-29.06c0-2.76-2.24-5-5-5H-75c-2.76 0-5-2.24-5-5v-29.06" stroke="#999" stroke-width="2" fill="none"/><path d="M-75.36 406.14h-9.28l4.64-14.26z" fill="#999"/><path d="M-74 407.14h-12l4.95-15.26h2.1zm-9.26-2h6.52L-80 395.1z" fill="#999"/><path d="M61.3 264.83c-.72-2.67.94-4.83 3.7-4.83h162.5c2.76 0 4.42 2.16 3.7 4.83l-32.58 122.2c-.7 2.68-3.53 4.85-6.3 4.85h-92.15c-2.76 0-5.58-2.17-6.3-4.84z" stroke="#666" stroke-width="2" fill="#fff"/><use xlink:href="#w" transform="matrix(1,0,0,1,60,260) translate(18.07999999999999 26.775)"/><use xlink:href="#x" transform="matrix(1,0,0,1,60,260) translate(90.98 26.775)"/><use xlink:href="#y" transform="matrix(1,0,0,1,60,260) translate(30.605 48.375)"/><use xlink:href="#z" transform="matrix(1,0,0,1,60,260) translate(65.605 48.375)"/><use xlink:href="#A" transform="matrix(1,0,0,1,60,260) translate(53.05500000000001 69.97500000000001)"/><use xlink:href="#B" transform="matrix(1,0,0,1,60,260) translate(93.955 69.97500000000001)"/><use xlink:href="#C" transform="matrix(1,0,0,1,60,260) translate(36.07999999999999 91.57500000000002)"/><use xlink:href="#D" transform="matrix(1,0,0,1,60,260) translate(104.03 91.57500000000002)"/><use xlink:href="#E" transform="matrix(1,0,0,1,60,260) translate(75.53 113.17500000000001)"/><path d="M30 460v-29.06c0-2.76 2.24-5 5-5h106.25c2.76 0 5-2.24 5-5v-29.06" stroke="#999" stroke-width="2" fill="none"/><path d="M150.9 406.14h-9.3l4.65-14.26z" fill="#999"/><path d="M152.26 407.14h-12.02l4.96-15.26h2.1zm-9.27-2h6.5l-3.25-10.03z" fill="#999"/><path d="M-30 865c0-2.76 2.24-5 5-5H85c2.76 0 5 2.24 5 5v62c0 2.76-1.75 6.4-3.9 8.12l-52.2 41.76c-2.15 1.72-5.65 1.72-7.8 0l-52.2-41.76c-2.15-1.72-3.9-5.36-3.9-8.12z" stroke="#666" stroke-width="2" fill="#fff"/><use xlink:href="#r" transform="matrix(1,0,0,1,-30,860) translate(13.12999999999999 59.4)"/><path d="M30 580v280" stroke="#999" stroke-width="2" fill="none"/><path d="M30 860l-4.64-14.27h9.28z" fill="#999"/><path d="M31.05 860h-2.1L24 844.73h12zm-4.3-13.27L30 856.76l3.26-10.03z" fill="#999"/><path d="M740 730H375c-2.76 0-5 2.24-5 5v305" stroke="#999" stroke-width="2" fill="none"/><path d="M370 1040l-4.64-14.27h9.28z" fill="#999"/><path d="M371.05 1040h-2.1l-4.96-15.27h12zm-4.3-13.27l3.25 10.03 3.26-10.03z" fill="#999"/><path d="M-300 760H25c2.76 0 5 2.24 5 5v95" stroke="#999" stroke-width="2" fill="none"/><path d="M30 860l-4.64-14.27h9.28z" fill="#999"/><path d="M31.05 860h-2.1L24 844.73h12zm-4.3-13.27L30 856.76l3.26-10.03z" fill="#999"/><path d="M-480 705c0-2.76 2.24-5 5-5h170c2.76 0 5 2.24 5 5v110c0 2.76-2.24 5-5 5h-170c-2.76 0-5-2.24-5-5z" stroke="#666" stroke-width="2" fill="#ff8f80"/><g><use xlink:href="#F" transform="matrix(1,0,0,1,-460,700) translate(14.174999999999997 63.6)"/></g><path d="M-318.7 492.96c-.72-2.67.94-4.83 3.7-4.83h150c2.76 0 4.42 2.16 3.7 4.83l-32.58 122.2c-.7 2.68-3.53 4.84-6.3 4.84h-79.65c-2.76 0-5.58-2.16-6.3-4.83z" stroke="#666" stroke-width="2" fill="#fff"/><g><use xlink:href="#G" transform="matrix(1,0,0,1,-320,488.125) translate(45.004999999999995 47.4)"/><use xlink:href="#H" transform="matrix(1,0,0,1,-320,488.125) translate(95.005 47.4)"/><use xlink:href="#I" transform="matrix(1,0,0,1,-320,488.125) translate(28.529999999999998 69)"/><use xlink:href="#J" transform="matrix(1,0,0,1,-320,488.125) translate(92.48 69)"/><use xlink:href="#K" transform="matrix(1,0,0,1,-320,488.125) translate(35.05499999999999 90.60000000000001)"/><use xlink:href="#L" transform="matrix(1,0,0,1,-320,488.125) translate(76.005 90.60000000000001)"/></g><path d="M-598.7 492.96c-.72-2.67.94-4.83 3.7-4.83h150c2.76 0 4.42 2.16 3.7 4.83l-32.58 122.2c-.7 2.68-3.53 4.84-6.3 4.84h-79.65c-2.76 0-5.58-2.16-6.3-4.83z" stroke="#666" stroke-width="2" fill="#fff"/><g><use xlink:href="#M" transform="matrix(1,0,0,1,-600,488.125) translate(37.03 59.775)"/><use xlink:href="#N" transform="matrix(1,0,0,1,-600,488.125) translate(43.55499999999999 81.375)"/></g><path d="M-240 620v35c0 2.76-2.24 5-5 5h-140c-2.76 0-5 2.24-5 5v35" stroke="#999" stroke-width="2" fill="none"/><path d="M-390 700l-4.64-14.27h9.28z" fill="#999"/><path d="M-388.95 700h-2.1l-4.96-15.27h12zm-4.3-13.27l3.25 10.03 3.26-10.03z" fill="#999"/><path d="M-520 620v35c0 2.76 2.24 5 5 5h120c2.76 0 5 2.24 5 5v35" stroke="#999" stroke-width="2" fill="none"/><path d="M-390 700l-4.64-14.27h9.28z" fill="#999"/><path d="M-388.95 700h-2.1l-4.96-15.27h12zm-4.3-13.27l3.25 10.03 3.26-10.03z" fill="#999"/><defs><path fill="#333" d="M136-208V0H84v-208H4v-40h212v40h-80" id="O"/><path fill="#333" d="M110-194c64 0 96 36 96 99 0 64-35 99-97 99-61 0-95-36-95-99 0-62 34-99 96-99zm-1 164c35 0 45-28 45-65 0-40-10-65-43-65-34 0-45 26-45 65 0 36 10 65 43 65" id="P"/><path fill="#333" d="M195-6C206 82 75 100 31 46c-4-6-6-13-8-21l49-6c3 16 16 24 34 25 40 0 42-37 40-79-11 22-30 35-61 35-53 0-70-43-70-97 0-56 18-96 73-97 30 0 46 14 59 34l2-30h47zm-90-29c32 0 41-27 41-63 0-35-9-62-40-62-32 0-39 29-40 63 0 36 9 62 39 62" id="Q"/><path fill="#333" d="M25 0v-261h50V0H25" id="R"/><path fill="#333" d="M185-48c-13 30-37 53-82 52C43 2 14-33 14-96s30-98 90-98c62 0 83 45 84 108H66c0 31 8 55 39 56 18 0 30-7 34-22zm-45-69c5-46-57-63-70-21-2 6-4 13-4 21h74" id="S"/><g id="a"><use transform="matrix(0.05,0,0,0.05,0,0)" xlink:href="#O"/><use transform="matrix(0.05,0,0,0.05,9.600000000000001,0)" xlink:href="#P"/><use transform="matrix(0.05,0,0,0.05,20.550000000000004,0)" xlink:href="#Q"/><use transform="matrix(0.05,0,0,0.05,31.500000000000007,0)" xlink:href="#Q"/><use transform="matrix(0.05,0,0,0.05,42.45000000000001,0)" xlink:href="#R"/><use transform="matrix(0.05,0,0,0.05,47.45000000000001,0)" xlink:href="#S"/></g><path fill="#333" d="M190-63c-7 42-38 67-86 67-59 0-84-38-90-98-12-110 154-137 174-36l-49 2c-2-19-15-32-35-32-30 0-35 28-38 64-6 74 65 87 74 30" id="T"/><path fill="#333" d="M135-194c87-1 58 113 63 194h-50c-7-57 23-157-34-157-59 0-34 97-39 157H25l-1-190h47c2 12-1 28 3 38 12-26 28-41 61-42" id="U"/><path fill="#333" d="M115-3C79 11 28 4 28-45v-112H4v-33h27l15-45h31v45h36v33H77v99c-1 23 16 31 38 25v30" id="V"/><path fill="#333" d="M23 0v-37h61v-169l-59 37v-38l62-41h46v211h57V0H23" id="W"/><g id="b"><use transform="matrix(0.05,0,0,0.05,0,0)" xlink:href="#T"/><use transform="matrix(0.05,0,0,0.05,10,0)" xlink:href="#P"/><use transform="matrix(0.05,0,0,0.05,20.950000000000003,0)" xlink:href="#U"/><use transform="matrix(0.05,0,0,0.05,31.900000000000006,0)" xlink:href="#V"/><use transform="matrix(0.05,0,0,0.05,37.85000000000001,0)" xlink:href="#S"/><use transform="matrix(0.05,0,0,0.05,47.85000000000001,0)" xlink:href="#U"/><use transform="matrix(0.05,0,0,0.05,58.80000000000001,0)" xlink:href="#V"/><use transform="matrix(0.05,0,0,0.05,64.75000000000001,0)" xlink:href="#W"/></g><path fill="#333" d="M147 0H94L2-248h55l64 206c17-72 42-137 63-206h54" id="X"/><path fill="#333" d="M133-34C117-15 103 5 69 4 32 3 11-16 11-54c-1-60 55-63 116-61 1-26-3-47-28-47-18 1-26 9-28 27l-52-2c7-38 36-58 82-57s74 22 75 68l1 82c-1 14 12 18 25 15v27c-30 8-71 5-69-32zm-48 3c29 0 43-24 42-57-32 0-66-3-65 30 0 17 8 27 23 27" id="Y"/><path fill="#333" d="M85 4C-2 5 27-109 22-190h50c7 57-23 150 33 157 60-5 35-97 40-157h50l1 190h-47c-2-12 1-28-3-38-12 25-28 42-61 42" id="Z"/><g id="c"><use transform="matrix(0.05,0,0,0.05,0,0)" xlink:href="#X"/><use transform="matrix(0.05,0,0,0.05,11,0)" xlink:href="#Y"/><use transform="matrix(0.05,0,0,0.05,21,0)" xlink:href="#R"/><use transform="matrix(0.05,0,0,0.05,26,0)" xlink:href="#Z"/><use transform="matrix(0.05,0,0,0.05,36.95,0)" xlink:href="#S"/></g><path fill="#333" d="M24 0v-248h52V0H24" id="aa"/><path fill="#333" d="M220-157c-53 9-28 100-34 157h-49v-107c1-27-5-49-29-50C55-147 81-57 75 0H25l-1-190h47c2 12-1 28 3 38 10-53 101-56 108 0 13-22 24-43 59-42 82 1 51 116 57 194h-49v-107c-1-25-5-48-29-50" id="ab"/><g id="d"><use transform="matrix(0.05,0,0,0.05,0,0)" xlink:href="#aa"/><use transform="matrix(0.05,0,0,0.05,5,0)" xlink:href="#ab"/><use transform="matrix(0.05,0,0,0.05,21,0)" xlink:href="#Y"/><use transform="matrix(0.05,0,0,0.05,31,0)" xlink:href="#Q"/><use transform="matrix(0.05,0,0,0.05,41.95,0)" xlink:href="#S"/></g><path fill="#333" d="M67-125c0 53 21 87 73 88 37 1 54-22 65-47l45 17C233-25 199 4 140 4 58 4 20-42 15-125 8-235 124-281 211-232c18 10 29 29 36 50l-46 12c-8-25-30-41-62-41-52 0-71 34-72 86" id="ac"/><path fill="#333" d="M128 0H69L1-190h53L99-40l48-150h52" id="ad"/><path fill="#333" d="M135-150c-39-12-60 13-60 57V0H25l-1-190h47c2 13-1 29 3 40 6-28 27-53 61-41v41" id="ae"/><g id="e"><use transform="matrix(0.05,0,0,0.05,0,0)" xlink:href="#ac"/><use transform="matrix(0.05,0,0,0.05,12.950000000000001,0)" xlink:href="#P"/><use transform="matrix(0.05,0,0,0.05,23.900000000000002,0)" xlink:href="#ad"/><use transform="matrix(0.05,0,0,0.05,33.900000000000006,0)" xlink:href="#S"/><use transform="matrix(0.05,0,0,0.05,43.900000000000006,0)" xlink:href="#ae"/></g><path fill="#333" d="M182-182c0 78-84 86-111 141h115V0H12c-6-101 99-100 120-180 1-22-12-31-33-32-23 0-32 14-35 34l-49-3c5-45 32-70 84-70 51 0 83 22 83 69" id="af"/><g id="f"><use transform="matrix(0.05,0,0,0.05,0,0)" xlink:href="#T"/><use transform="matrix(0.05,0,0,0.05,10,0)" xlink:href="#P"/><use transform="matrix(0.05,0,0,0.05,20.950000000000003,0)" xlink:href="#U"/><use transform="matrix(0.05,0,0,0.05,31.900000000000006,0)" xlink:href="#V"/><use transform="matrix(0.05,0,0,0.05,37.85000000000001,0)" xlink:href="#S"/><use transform="matrix(0.05,0,0,0.05,47.85000000000001,0)" xlink:href="#U"/><use transform="matrix(0.05,0,0,0.05,58.80000000000001,0)" xlink:href="#V"/><use transform="matrix(0.05,0,0,0.05,64.75000000000001,0)" xlink:href="#af"/></g><path fill="#333" d="M24-248c93 1 206-16 204 79-1 75-69 88-152 82V0H24v-248zm52 121c47 0 100 7 100-41 0-47-54-39-100-39v80" id="ag"/><path fill="#333" d="M25-224v-37h50v37H25zM25 0v-190h50V0H25" id="ah"/><path fill="#333" d="M135-194c53 0 70 44 70 98 0 56-19 98-73 100-31 1-45-17-59-34 3 33 2 69 2 105H25l-1-265h48c2 10 0 23 3 31 11-24 29-35 60-35zM114-30c33 0 39-31 40-66 0-38-9-64-40-64-56 0-55 130 0 130" id="ai"/><path fill="#333" d="M114-157C55-157 80-60 75 0H25v-261h50l-1 109c12-26 28-41 61-42 86-1 58 113 63 194h-50c-7-57 23-157-34-157" id="aj"/><g id="g"><use transform="matrix(0.05,0,0,0.05,0,0)" xlink:href="#ag"/><use transform="matrix(0.05,0,0,0.05,12,0)" xlink:href="#S"/><use transform="matrix(0.05,0,0,0.05,22,0)" xlink:href="#ae"/><use transform="matrix(0.05,0,0,0.05,29,0)" xlink:href="#ah"/><use transform="matrix(0.05,0,0,0.05,34,0)" xlink:href="#ai"/><use transform="matrix(0.05,0,0,0.05,44.95,0)" xlink:href="#aj"/><use transform="matrix(0.05,0,0,0.05,55.900000000000006,0)" xlink:href="#S"/><use transform="matrix(0.05,0,0,0.05,65.9,0)" xlink:href="#ae"/><use transform="matrix(0.05,0,0,0.05,72.9,0)" xlink:href="#Y"/><use transform="matrix(0.05,0,0,0.05,82.9,0)" xlink:href="#R"/></g><path fill="#333" d="M24 0v-248h195v40H76v63h132v40H76v65h150V0H24" id="ak"/><path fill="#333" d="M137-138c1-29-70-34-71-4 15 46 118 7 119 86 1 83-164 76-172 9l43-7c4 19 20 25 44 25 33 8 57-30 24-41C81-84 22-81 20-136c-2-80 154-74 161-7" id="al"/><g id="h"><use transform="matrix(0.05,0,0,0.05,0,0)" xlink:href="#ak"/><use transform="matrix(0.05,0,0,0.05,12,0)" xlink:href="#R"/><use transform="matrix(0.05,0,0,0.05,17,0)" xlink:href="#S"/><use transform="matrix(0.05,0,0,0.05,27,0)" xlink:href="#ab"/><use transform="matrix(0.05,0,0,0.05,43,0)" xlink:href="#S"/><use transform="matrix(0.05,0,0,0.05,53,0)" xlink:href="#U"/><use transform="matrix(0.05,0,0,0.05,63.95,0)" xlink:href="#V"/><use transform="matrix(0.05,0,0,0.05,69.9,0)" xlink:href="#al"/></g><path fill="#333" d="M140-251c80 0 125 45 125 126S219 4 139 4C58 4 15-44 15-125s44-126 125-126zm-1 214c52 0 73-35 73-88 0-50-21-86-72-86-52 0-73 35-73 86s22 88 72 88" id="am"/><g id="i"><use transform="matrix(0.05,0,0,0.05,0,0)" xlink:href="#am"/><use transform="matrix(0.05,0,0,0.05,14,0)" xlink:href="#Z"/><use transform="matrix(0.05,0,0,0.05,24.950000000000003,0)" xlink:href="#V"/><use transform="matrix(0.05,0,0,0.05,30.900000000000002,0)" xlink:href="#ai"/><use transform="matrix(0.05,0,0,0.05,41.85,0)" xlink:href="#Z"/><use transform="matrix(0.05,0,0,0.05,52.800000000000004,0)" xlink:href="#V"/></g><path fill="#333" d="M230 0l2-204L168 0h-37L68-204 70 0H24v-248h70l56 185 57-185h69V0h-46" id="an"/><g id="j"><use transform="matrix(0.05,0,0,0.05,0,0)" xlink:href="#an"/><use transform="matrix(0.05,0,0,0.05,14.950000000000001,0)" xlink:href="#Z"/><use transform="matrix(0.05,0,0,0.05,25.900000000000002,0)" xlink:href="#R"/><use transform="matrix(0.05,0,0,0.05,30.900000000000002,0)" xlink:href="#V"/><use transform="matrix(0.05,0,0,0.05,36.85,0)" xlink:href="#ah"/><use transform="matrix(0.05,0,0,0.05,41.85,0)" xlink:href="#ai"/><use transform="matrix(0.05,0,0,0.05,52.800000000000004,0)" xlink:href="#R"/><use transform="matrix(0.05,0,0,0.05,57.800000000000004,0)" xlink:href="#S"/></g><path fill="#999" d="M230 0l2-204L168 0h-37L68-204 70 0H24v-248h70l56 185 57-185h69V0h-46" id="ao"/><path fill="#999" d="M24 0v-248h195v40H76v63h132v40H76v65h150V0H24" id="ap"/><path fill="#999" d="M140-251c80 0 125 45 125 126S219 4 139 4C58 4 15-44 15-125s44-126 125-126zm-1 214c52 0 73-35 73-88 0-50-21-86-72-86-52 0-73 35-73 86s22 88 72 88" id="aq"/><path fill="#999" d="M240-174c0 40-23 61-54 70L253 0h-59l-57-94H76V0H24v-248c93 4 217-23 216 74zM76-134c48-2 112 12 112-38 0-48-66-32-112-35v73" id="ar"/><path fill="#999" d="M146-102V0H94v-102L6-248h54l60 105 60-105h54" id="as"/><path fill="#999" d="M67-125c0 54 23 88 75 88 28 0 53-7 68-21v-34h-60v-39h108v91C232-14 192 4 140 4 58 4 20-42 15-125 8-236 126-280 215-234c19 10 29 26 37 47l-47 15c-11-23-29-39-63-39-53 1-75 33-75 86" id="at"/><path fill="#999" d="M199 0l-22-63H83L61 0H9l90-248h61L250 0h-51zm-33-102l-36-108c-10 38-24 72-36 108h72" id="au"/><path fill="#999" d="M24-248c93 1 206-16 204 79-1 75-69 88-152 82V0H24v-248zm52 121c47 0 100 7 100-41 0-47-54-39-100-39v80" id="av"/><path fill="#999" d="M176-78C186 10 51 31 16-35c-5-9-9-19-11-32l52-8c4 21 12 37 35 38 23 0 32-16 32-40v-130H75v-41h101v170" id="aw"/><path fill="#999" d="M67-125c0 53 21 87 73 88 37 1 54-22 65-47l45 17C233-25 199 4 140 4 58 4 20-42 15-125 8-235 124-281 211-232c18 10 29 29 36 50l-46 12c-8-25-30-41-62-41-52 0-71 34-72 86" id="ax"/><path fill="#999" d="M136-208V0H84v-208H4v-40h212v40h-80" id="ay"/><g id="k"><use transform="matrix(0.09876543209876544,0,0,0.09876543209876544,0,0)" xlink:href="#ao"/><use transform="matrix(0.09876543209876544,0,0,0.09876543209876544,29.530864197530867,0)" xlink:href="#ap"/><use transform="matrix(0.09876543209876544,0,0,0.09876543209876544,53.23456790123457,0)" xlink:href="#ao"/><use transform="matrix(0.09876543209876544,0,0,0.09876543209876544,82.76543209876544,0)" xlink:href="#aq"/><use transform="matrix(0.09876543209876544,0,0,0.09876543209876544,110.41975308641979,0)" xlink:href="#ar"/><use transform="matrix(0.09876543209876544,0,0,0.09876543209876544,134.71604938271608,0)" xlink:href="#as"/><use transform="matrix(0.09876543209876544,0,0,0.09876543209876544,158.41975308641977,0)" xlink:href="#at"/><use transform="matrix(0.09876543209876544,0,0,0.09876543209876544,186.0740740740741,0)" xlink:href="#au"/><use transform="matrix(0.09876543209876544,0,0,0.09876543209876544,211.65432098765433,0)" xlink:href="#ao"/><use transform="matrix(0.09876543209876544,0,0,0.09876543209876544,241.18518518518522,0)" xlink:href="#ap"/><use transform="matrix(0.09876543209876544,0,0,0.09876543209876544,264.8888888888889,0)" xlink:href="#av"/><use transform="matrix(0.09876543209876544,0,0,0.09876543209876544,288.5925925925926,0)" xlink:href="#ar"/><use transform="matrix(0.09876543209876544,0,0,0.09876543209876544,314.17283950617286,0)" xlink:href="#aq"/><use transform="matrix(0.09876543209876544,0,0,0.09876543209876544,341.8271604938272,0)" xlink:href="#aw"/><use transform="matrix(0.09876543209876544,0,0,0.09876543209876544,361.58024691358025,0)" xlink:href="#ap"/><use transform="matrix(0.09876543209876544,0,0,0.09876543209876544,385.28395061728395,0)" xlink:href="#ax"/><use transform="matrix(0.09876543209876544,0,0,0.09876543209876544,410.86419753086426,0)" xlink:href="#ay"/></g><path fill="#999" d="M185-189c-5-48-123-54-124 2 14 75 158 14 163 119 3 78-121 87-175 55-17-10-28-26-33-46l33-7c5 56 141 63 141-1 0-78-155-14-162-118-5-82 145-84 179-34 5 7 8 16 11 25" id="az"/><path fill="#999" d="M117-194c89-4 53 116 60 194h-32v-121c0-31-8-49-39-48C34-167 62-67 57 0H25l-1-190h30c1 10-1 24 2 32 11-22 29-35 61-36" id="aA"/><path fill="#999" d="M24-231v-30h32v30H24zM24 0v-190h32V0H24" id="aB"/><path fill="#999" d="M114-163C36-179 61-72 57 0H25l-1-190h30c1 12-1 29 2 39 6-27 23-49 58-41v29" id="aC"/><g id="l"><use transform="matrix(0.06172839506172778,0,0,0.06172839506172778,0,0)" xlink:href="#az"/><use transform="matrix(0.06172839506172778,0,0,0.06172839506172778,14.814814814814667,0)" xlink:href="#aA"/><use transform="matrix(0.06172839506172778,0,0,0.06172839506172778,27.160493827160224,0)" xlink:href="#aB"/><use transform="matrix(0.06172839506172778,0,0,0.06172839506172778,32.03703703703672,0)" xlink:href="#aC"/></g><path fill="#999" d="M197 0v-115H63V0H30v-248h33v105h134v-105h34V0h-34" id="aD"/><path fill="#999" d="M100-194c62-1 85 37 85 99 1 63-27 99-86 99S16-35 15-95c0-66 28-99 85-99zM99-20c44 1 53-31 53-75 0-43-8-75-51-75s-53 32-53 75 10 74 51 75" id="aE"/><path fill="#999" d="M85-194c31 0 48 13 60 33l-1-100h32l1 261h-30c-2-10 0-23-3-31C134-8 116 4 85 4 32 4 16-35 15-94c0-66 23-100 70-100zm9 24c-40 0-46 34-46 75 0 40 6 74 45 74 42 0 51-32 51-76 0-42-9-74-50-73" id="aF"/><path fill="#999" d="M141-36C126-15 110 5 73 4 37 3 15-17 15-53c-1-64 63-63 125-63 3-35-9-54-41-54-24 1-41 7-42 31l-33-3c5-37 33-52 76-52 45 0 72 20 72 64v82c-1 20 7 32 28 27v20c-31 9-61-2-59-35zM48-53c0 20 12 33 32 33 41-3 63-29 60-74-43 2-92-5-92 41" id="aG"/><g id="m"><use transform="matrix(0.06172839506172778,0,0,0.06172839506172778,0,0)" xlink:href="#aD"/><use transform="matrix(0.06172839506172778,0,0,0.06172839506172778,15.987654320987495,0)" xlink:href="#aE"/><use transform="matrix(0.06172839506172778,0,0,0.06172839506172778,28.33333333333305,0)" xlink:href="#aC"/><use transform="matrix(0.06172839506172778,0,0,0.06172839506172778,35.67901234567866,0)" xlink:href="#aF"/><use transform="matrix(0.06172839506172778,0,0,0.06172839506172778,48.024691358024214,0)" xlink:href="#aG"/><use transform="matrix(0.06172839506172778,0,0,0.06172839506172778,60.37037037036977,0)" xlink:href="#aA"/></g><path fill="#999" d="M32 76v-337h29V76H32" id="aH"/><use transform="matrix(0.06172839506172778,0,0,0.06172839506172778,0,0)" xlink:href="#aH" id="n"/><path fill="#999" d="M63-220v92h138v28H63V0H30v-248h175v28H63" id="aI"/><path fill="#999" d="M100-194c63 0 86 42 84 106H49c0 40 14 67 53 68 26 1 43-12 49-29l28 8c-11 28-37 45-77 45C44 4 14-33 15-96c1-61 26-98 85-98zm52 81c6-60-76-77-97-28-3 7-6 17-6 28h103" id="aJ"/><path fill="#999" d="M115-194c53 0 69 39 70 98 0 66-23 100-70 100C84 3 66-7 56-30L54 0H23l1-261h32v101c10-23 28-34 59-34zm-8 174c40 0 45-34 45-75 0-40-5-75-45-74-42 0-51 32-51 76 0 43 10 73 51 73" id="aK"/><path fill="#999" d="M84 4C-5 8 30-112 23-190h32v120c0 31 7 50 39 49 72-2 45-101 50-169h31l1 190h-30c-1-10 1-25-2-33-11 22-28 36-60 37" id="aL"/><path fill="#999" d="M179-190L93 31C79 59 56 82 12 73V49c39 6 53-20 64-50L1-190h34L92-34l54-156h33" id="aM"/><g id="o"><use transform="matrix(0.06172839506172778,0,0,0.06172839506172778,0,0)" xlink:href="#aI"/><use transform="matrix(0.06172839506172778,0,0,0.06172839506172778,13.518518518518384,0)" xlink:href="#aJ"/><use transform="matrix(0.06172839506172778,0,0,0.06172839506172778,25.86419753086394,0)" xlink:href="#aK"/><use transform="matrix(0.06172839506172778,0,0,0.06172839506172778,38.209876543209496,0)" xlink:href="#aC"/><use transform="matrix(0.06172839506172778,0,0,0.06172839506172778,45.5555555555551,0)" xlink:href="#aL"/><use transform="matrix(0.06172839506172778,0,0,0.06172839506172778,57.90123456790066,0)" xlink:href="#aG"/><use transform="matrix(0.06172839506172778,0,0,0.06172839506172778,70.24691358024621,0)" xlink:href="#aC"/><use transform="matrix(0.06172839506172778,0,0,0.06172839506172778,77.59259259259181,0)" xlink:href="#aM"/></g><path fill="#999" d="M99-251c64 0 84 50 84 122C183-37 130 33 47-8c-14-7-20-23-25-40l30-5c6 39 69 39 84 7 9-19 16-44 16-74-10 22-31 35-62 35-49 0-73-33-73-83 0-54 28-83 82-83zm-1 141c31-1 51-18 51-49 0-36-14-67-51-67-34 0-49 23-49 58 0 34 15 58 49 58" id="aN"/><path fill="#999" d="M68-38c1 34 0 65-14 84H32c9-13 17-26 17-46H33v-38h35" id="aO"/><g id="p"><use transform="matrix(0.06172839506172778,0,0,0.06172839506172778,0,0)" xlink:href="#aN"/><use transform="matrix(0.06172839506172778,0,0,0.06172839506172778,12.345679012345556,0)" xlink:href="#aO"/></g><path fill="#999" d="M101-251c82-7 93 87 43 132L82-64C71-53 59-42 53-27h129V0H18c2-99 128-94 128-182 0-28-16-43-45-43s-46 15-49 41l-32-3c6-41 34-60 81-64" id="aP"/><path fill="#999" d="M101-251c68 0 85 55 85 127S166 4 100 4C33 4 14-52 14-124c0-73 17-127 87-127zm-1 229c47 0 54-49 54-102s-4-102-53-102c-51 0-55 48-55 102 0 53 5 102 54 102" id="aQ"/><path fill="#999" d="M27 0v-27h64v-190l-56 39v-29l58-41h29v221h61V0H27" id="aR"/><path fill="#999" d="M64 0c3-98 48-159 88-221H18v-27h164v26C143-157 98-101 97 0H64" id="aS"/><g id="q"><use transform="matrix(0.06172839506172778,0,0,0.06172839506172778,0,0)" xlink:href="#aP"/><use transform="matrix(0.06172839506172778,0,0,0.06172839506172778,12.345679012345556,0)" xlink:href="#aQ"/><use transform="matrix(0.06172839506172778,0,0,0.06172839506172778,24.691358024691112,0)" xlink:href="#aR"/><use transform="matrix(0.06172839506172778,0,0,0.06172839506172778,37.03703703703667,0)" xlink:href="#aS"/></g><path fill="#333" d="M33 0v-248h34V0H33" id="aT"/><path fill="#333" d="M117-194c89-4 53 116 60 194h-32v-121c0-31-8-49-39-48C34-167 62-67 57 0H25l-1-190h30c1 10-1 24 2 32 11-22 29-35 61-36" id="aU"/><path fill="#333" d="M59-47c-2 24 18 29 38 22v24C64 9 27 4 27-40v-127H5v-23h24l9-43h21v43h35v23H59v120" id="aV"/><path fill="#333" d="M100-194c63 0 86 42 84 106H49c0 40 14 67 53 68 26 1 43-12 49-29l28 8c-11 28-37 45-77 45C44 4 14-33 15-96c1-61 26-98 85-98zm52 81c6-60-76-77-97-28-3 7-6 17-6 28h103" id="aW"/><path fill="#333" d="M114-163C36-179 61-72 57 0H25l-1-190h30c1 12-1 29 2 39 6-27 23-49 58-41v29" id="aX"/><path fill="#333" d="M210-169c-67 3-38 105-44 169h-31v-121c0-29-5-50-35-48C34-165 62-65 56 0H25l-1-190h30c1 10-1 24 2 32 10-44 99-50 107 0 11-21 27-35 58-36 85-2 47 119 55 194h-31v-121c0-29-5-49-35-48" id="aY"/><path fill="#333" d="M24-231v-30h32v30H24zM24 0v-190h32V0H24" id="aZ"/><path fill="#333" d="M85-194c31 0 48 13 60 33l-1-100h32l1 261h-30c-2-10 0-23-3-31C134-8 116 4 85 4 32 4 16-35 15-94c0-66 23-100 70-100zm9 24c-40 0-46 34-46 75 0 40 6 74 45 74 42 0 51-32 51-76 0-42-9-74-50-73" id="ba"/><path fill="#333" d="M141-36C126-15 110 5 73 4 37 3 15-17 15-53c-1-64 63-63 125-63 3-35-9-54-41-54-24 1-41 7-42 31l-33-3c5-37 33-52 76-52 45 0 72 20 72 64v82c-1 20 7 32 28 27v20c-31 9-61-2-59-35zM48-53c0 20 12 33 32 33 41-3 63-29 60-74-43 2-92-5-92 41" id="bb"/><path fill="#333" d="M179-190L93 31C79 59 56 82 12 73V49c39 6 53-20 64-50L1-190h34L92-34l54-156h33" id="bc"/><g id="r"><use transform="matrix(0.05,0,0,0.05,0,0)" xlink:href="#aT"/><use transform="matrix(0.05,0,0,0.05,5,0)" xlink:href="#aU"/><use transform="matrix(0.05,0,0,0.05,15,0)" xlink:href="#aV"/><use transform="matrix(0.05,0,0,0.05,20,0)" xlink:href="#aW"/><use transform="matrix(0.05,0,0,0.05,30,0)" xlink:href="#aX"/><use transform="matrix(0.05,0,0,0.05,35.95,0)" xlink:href="#aY"/><use transform="matrix(0.05,0,0,0.05,50.900000000000006,0)" xlink:href="#aZ"/><use transform="matrix(0.05,0,0,0.05,54.85,0)" xlink:href="#ba"/><use transform="matrix(0.05,0,0,0.05,64.85000000000001,0)" xlink:href="#aZ"/><use transform="matrix(0.05,0,0,0.05,68.80000000000001,0)" xlink:href="#bb"/><use transform="matrix(0.05,0,0,0.05,78.80000000000001,0)" xlink:href="#aX"/><use transform="matrix(0.05,0,0,0.05,84.75000000000001,0)" xlink:href="#bc"/></g><path fill="#333" d="M212-179c-10-28-35-45-73-45-59 0-87 40-87 99 0 60 29 101 89 101 43 0 62-24 78-52l27 14C228-24 195 4 139 4 59 4 22-46 18-125c-6-104 99-153 187-111 19 9 31 26 39 46" id="bd"/><path fill="#333" d="M135-143c-3-34-86-38-87 0 15 53 115 12 119 90S17 21 10-45l28-5c4 36 97 45 98 0-10-56-113-15-118-90-4-57 82-63 122-42 12 7 21 19 24 35" id="be"/><g id="s"><use transform="matrix(0.05,0,0,0.05,0,0)" xlink:href="#bd"/><use transform="matrix(0.05,0,0,0.05,12.950000000000001,0)" xlink:href="#aX"/><use transform="matrix(0.05,0,0,0.05,18.900000000000002,0)" xlink:href="#aW"/><use transform="matrix(0.05,0,0,0.05,28.900000000000002,0)" xlink:href="#bb"/><use transform="matrix(0.05,0,0,0.05,38.900000000000006,0)" xlink:href="#aV"/><use transform="matrix(0.05,0,0,0.05,43.900000000000006,0)" xlink:href="#aW"/><use transform="matrix(0.05,0,0,0.05,53.900000000000006,0)" xlink:href="#be"/></g><path fill="#333" d="M24 0v-261h32V0H24" id="bf"/><g id="t"><use transform="matrix(0.05,0,0,0.05,0,0)" xlink:href="#aW"/><use transform="matrix(0.05,0,0,0.05,10,0)" xlink:href="#bf"/><use transform="matrix(0.05,0,0,0.05,13.949999999999998,0)" xlink:href="#aW"/><use transform="matrix(0.05,0,0,0.05,23.95,0)" xlink:href="#aY"/><use transform="matrix(0.05,0,0,0.05,38.9,0)" xlink:href="#aW"/><use transform="matrix(0.05,0,0,0.05,48.9,0)" xlink:href="#aU"/><use transform="matrix(0.05,0,0,0.05,58.900000000000006,0)" xlink:href="#aV"/><use transform="matrix(0.05,0,0,0.05,63.900000000000006,0)" xlink:href="#be"/></g><path fill="#333" d="M101-234c-31-9-42 10-38 44h38v23H63V0H32v-167H5v-23h27c-7-52 17-82 69-68v24" id="bg"/><path fill="#333" d="M100-194c62-1 85 37 85 99 1 63-27 99-86 99S16-35 15-95c0-66 28-99 85-99zM99-20c44 1 53-31 53-75 0-43-8-75-51-75s-53 32-53 75 10 74 51 75" id="bh"/><g id="u"><use transform="matrix(0.05,0,0,0.05,0,0)" xlink:href="#bg"/><use transform="matrix(0.05,0,0,0.05,5,0)" xlink:href="#aX"/><use transform="matrix(0.05,0,0,0.05,10.95,0)" xlink:href="#bh"/><use transform="matrix(0.05,0,0,0.05,20.95,0)" xlink:href="#aY"/></g><g id="v"><use transform="matrix(0.05,0,0,0.05,0,0)" xlink:href="#bb"/><use transform="matrix(0.05,0,0,0.05,10,0)" xlink:href="#aX"/><use transform="matrix(0.05,0,0,0.05,15.949999999999998,0)" xlink:href="#aX"/><use transform="matrix(0.05,0,0,0.05,21.9,0)" xlink:href="#bb"/><use transform="matrix(0.05,0,0,0.05,31.899999999999995,0)" xlink:href="#bc"/></g><path fill="#333" d="M63-220v92h138v28H63V0H30v-248h175v28H63" id="bi"/><path fill="#333" d="M30 0v-248h187v28H63v79h144v27H63v87h162V0H30" id="bj"/><path fill="#333" d="M96-169c-40 0-48 33-48 73s9 75 48 75c24 0 41-14 43-38l32 2c-6 37-31 61-74 61-59 0-76-41-82-99-10-93 101-131 147-64 4 7 5 14 7 22l-32 3c-4-21-16-35-41-35" id="bk"/><path fill="#333" d="M106-169C34-169 62-67 57 0H25v-261h32l-1 103c12-21 28-36 61-36 89 0 53 116 60 194h-32v-121c2-32-8-49-39-48" id="bl"/><g id="w"><use transform="matrix(0.05,0,0,0.05,0,0)" xlink:href="#bi"/><use transform="matrix(0.05,0,0,0.05,10.950000000000001,0)" xlink:href="#bh"/><use transform="matrix(0.05,0,0,0.05,20.950000000000003,0)" xlink:href="#aX"/><use transform="matrix(0.05,0,0,0.05,26.900000000000002,0)" xlink:href="#bj"/><use transform="matrix(0.05,0,0,0.05,38.900000000000006,0)" xlink:href="#bb"/><use transform="matrix(0.05,0,0,0.05,48.900000000000006,0)" xlink:href="#bk"/><use transform="matrix(0.05,0,0,0.05,57.900000000000006,0)" xlink:href="#bl"/></g><path fill="#333" d="M84 4C-5 8 30-112 23-190h32v120c0 31 7 50 39 49 72-2 45-101 50-169h31l1 190h-30c-1-10 1-25-2-33-11 22-28 36-60 37" id="bm"/><g id="x"><use transform="matrix(0.05,0,0,0.05,0,0)" xlink:href="#bg"/><use transform="matrix(0.05,0,0,0.05,5,0)" xlink:href="#bm"/><use transform="matrix(0.05,0,0,0.05,15,0)" xlink:href="#aU"/><use transform="matrix(0.05,0,0,0.05,25,0)" xlink:href="#bk"/><use transform="matrix(0.05,0,0,0.05,34,0)" xlink:href="#aV"/><use transform="matrix(0.05,0,0,0.05,39,0)" xlink:href="#aZ"/><use transform="matrix(0.05,0,0,0.05,42.95,0)" xlink:href="#bh"/><use transform="matrix(0.05,0,0,0.05,52.95,0)" xlink:href="#aU"/></g><g id="y"><use transform="matrix(0.05,0,0,0.05,0,0)" xlink:href="#aV"/><use transform="matrix(0.05,0,0,0.05,5,0)" xlink:href="#bl"/><use transform="matrix(0.05,0,0,0.05,15,0)" xlink:href="#bb"/><use transform="matrix(0.05,0,0,0.05,25,0)" xlink:href="#aV"/></g><path fill="#333" d="M108 0H70L1-190h34L89-25l56-165h34" id="bn"/><g id="z"><use transform="matrix(0.05,0,0,0.05,0,0)" xlink:href="#aZ"/><use transform="matrix(0.05,0,0,0.05,3.95,0)" xlink:href="#aV"/><use transform="matrix(0.05,0,0,0.05,8.95,0)" xlink:href="#aW"/><use transform="matrix(0.05,0,0,0.05,18.95,0)" xlink:href="#aX"/><use transform="matrix(0.05,0,0,0.05,24.9,0)" xlink:href="#bb"/><use transform="matrix(0.05,0,0,0.05,34.9,0)" xlink:href="#aV"/><use transform="matrix(0.05,0,0,0.05,39.9,0)" xlink:href="#aZ"/><use transform="matrix(0.05,0,0,0.05,43.85,0)" xlink:href="#bn"/><use transform="matrix(0.05,0,0,0.05,52.85,0)" xlink:href="#aW"/><use transform="matrix(0.05,0,0,0.05,62.85,0)" xlink:href="#bf"/><use transform="matrix(0.05,0,0,0.05,66.8,0)" xlink:href="#bc"/></g><g id="A"><use transform="matrix(0.05,0,0,0.05,0,0)" xlink:href="#bk"/><use transform="matrix(0.05,0,0,0.05,9,0)" xlink:href="#bb"/><use transform="matrix(0.05,0,0,0.05,19,0)" xlink:href="#bf"/><use transform="matrix(0.05,0,0,0.05,22.95,0)" xlink:href="#bf"/><use transform="matrix(0.05,0,0,0.05,26.899999999999995,0)" xlink:href="#be"/></g><g id="B"><use transform="matrix(0.05,0,0,0.05,0,0)" xlink:href="#aV"/><use transform="matrix(0.05,0,0,0.05,5,0)" xlink:href="#bl"/><use transform="matrix(0.05,0,0,0.05,15,0)" xlink:href="#aW"/></g><g id="C"><use transform="matrix(0.05,0,0,0.05,0,0)" xlink:href="#bg"/><use transform="matrix(0.05,0,0,0.05,5,0)" xlink:href="#bm"/><use transform="matrix(0.05,0,0,0.05,15,0)" xlink:href="#aU"/><use transform="matrix(0.05,0,0,0.05,25,0)" xlink:href="#bk"/><use transform="matrix(0.05,0,0,0.05,34,0)" xlink:href="#aV"/><use transform="matrix(0.05,0,0,0.05,39,0)" xlink:href="#aZ"/><use transform="matrix(0.05,0,0,0.05,42.95,0)" xlink:href="#bh"/><use transform="matrix(0.05,0,0,0.05,52.95,0)" xlink:href="#aU"/></g><path fill="#333" d="M206 0h-36l-40-164L89 0H53L-1-190h32L70-26l43-164h34l41 164 42-164h31" id="bo"/><g id="D"><use transform="matrix(0.05,0,0,0.05,0,0)" xlink:href="#bo"/><use transform="matrix(0.05,0,0,0.05,12.950000000000001,0)" xlink:href="#aZ"/><use transform="matrix(0.05,0,0,0.05,16.900000000000002,0)" xlink:href="#aV"/><use transform="matrix(0.05,0,0,0.05,21.900000000000002,0)" xlink:href="#bl"/></g><g id="E"><use transform="matrix(0.05,0,0,0.05,0,0)" xlink:href="#bg"/><use transform="matrix(0.05,0,0,0.05,5,0)" xlink:href="#bh"/><use transform="matrix(0.05,0,0,0.05,15,0)" xlink:href="#aX"/></g><path fill="#333" d="M76-208v77h127v40H76V0H24v-248h183v40H76" id="bp"/><path fill="#333" d="M123 10C108 53 80 86 19 72V37c35 8 53-11 59-39L3-190h52l48 148c12-52 28-100 44-148h51" id="bq"/><g id="F"><use transform="matrix(0.05,0,0,0.05,0,0)" xlink:href="#bp"/><use transform="matrix(0.05,0,0,0.05,10.950000000000001,0)" xlink:href="#Z"/><use transform="matrix(0.05,0,0,0.05,21.900000000000002,0)" xlink:href="#U"/><use transform="matrix(0.05,0,0,0.05,32.85,0)" xlink:href="#T"/><use transform="matrix(0.05,0,0,0.05,42.85,0)" xlink:href="#V"/><use transform="matrix(0.05,0,0,0.05,48.800000000000004,0)" xlink:href="#ah"/><use transform="matrix(0.05,0,0,0.05,53.800000000000004,0)" xlink:href="#P"/><use transform="matrix(0.05,0,0,0.05,64.75,0)" xlink:href="#U"/><use transform="matrix(0.05,0,0,0.05,75.7,0)" xlink:href="#Y"/><use transform="matrix(0.05,0,0,0.05,85.7,0)" xlink:href="#R"/><use transform="matrix(0.05,0,0,0.05,90.7,0)" xlink:href="#ah"/><use transform="matrix(0.05,0,0,0.05,95.7,0)" xlink:href="#V"/><use transform="matrix(0.05,0,0,0.05,101.65,0)" xlink:href="#bq"/></g><path fill="#333" d="M185-189c-5-48-123-54-124 2 14 75 158 14 163 119 3 78-121 87-175 55-17-10-28-26-33-46l33-7c5 56 141 63 141-1 0-78-155-14-162-118-5-82 145-84 179-34 5 7 8 16 11 25" id="br"/><g id="G"><use transform="matrix(0.05,0,0,0.05,0,0)" xlink:href="#br"/><use transform="matrix(0.05,0,0,0.05,12,0)" xlink:href="#aV"/><use transform="matrix(0.05,0,0,0.05,17,0)" xlink:href="#bb"/><use transform="matrix(0.05,0,0,0.05,27,0)" xlink:href="#bc"/><use transform="matrix(0.05,0,0,0.05,36,0)" xlink:href="#be"/></g><g id="H"><use transform="matrix(0.05,0,0,0.05,0,0)" xlink:href="#bh"/><use transform="matrix(0.05,0,0,0.05,10,0)" xlink:href="#aU"/></g><path fill="#333" d="M177-190C167-65 218 103 67 71c-23-6-38-20-44-43l32-5c15 47 100 32 89-28v-30C133-14 115 1 83 1 29 1 15-40 15-95c0-56 16-97 71-98 29-1 48 16 59 35 1-10 0-23 2-32h30zM94-22c36 0 50-32 50-73 0-42-14-75-50-75-39 0-46 34-46 75s6 73 46 73" id="bs"/><g id="I"><use transform="matrix(0.05,0,0,0.05,0,0)" xlink:href="#aV"/><use transform="matrix(0.05,0,0,0.05,5,0)" xlink:href="#bh"/><use transform="matrix(0.05,0,0,0.05,15,0)" xlink:href="#bs"/><use transform="matrix(0.05,0,0,0.05,25,0)" xlink:href="#bs"/><use transform="matrix(0.05,0,0,0.05,35,0)" xlink:href="#bf"/><use transform="matrix(0.05,0,0,0.05,38.95,0)" xlink:href="#aW"/><use transform="matrix(0.05,0,0,0.05,48.95,0)" xlink:href="#ba"/></g><g id="J"><use transform="matrix(0.05,0,0,0.05,0,0)" xlink:href="#be"/><use transform="matrix(0.05,0,0,0.05,9,0)" xlink:href="#aV"/><use transform="matrix(0.05,0,0,0.05,14,0)" xlink:href="#bb"/><use transform="matrix(0.05,0,0,0.05,24,0)" xlink:href="#aV"/><use transform="matrix(0.05,0,0,0.05,29,0)" xlink:href="#aW"/></g><g id="K"><use transform="matrix(0.05,0,0,0.05,0,0)" xlink:href="#bb"/><use transform="matrix(0.05,0,0,0.05,10,0)" xlink:href="#bg"/><use transform="matrix(0.05,0,0,0.05,15,0)" xlink:href="#aV"/><use transform="matrix(0.05,0,0,0.05,20,0)" xlink:href="#aW"/><use transform="matrix(0.05,0,0,0.05,30,0)" xlink:href="#aX"/></g><g id="L"><use transform="matrix(0.05,0,0,0.05,0,0)" xlink:href="#aY"/><use transform="matrix(0.05,0,0,0.05,14.950000000000001,0)" xlink:href="#bb"/><use transform="matrix(0.05,0,0,0.05,24.950000000000003,0)" xlink:href="#aV"/><use transform="matrix(0.05,0,0,0.05,29.950000000000003,0)" xlink:href="#bk"/><use transform="matrix(0.05,0,0,0.05,38.95,0)" xlink:href="#bl"/></g><path fill="#333" d="M194 0L95-120 63-95V0H30v-248h33v124l119-124h40L117-140 236 0h-42" id="bt"/><path fill="#333" d="M16-82v-28h88v28H16" id="bu"/><path fill="#333" d="M115-194c53 0 69 39 70 98 0 66-23 100-70 100C84 3 66-7 56-30L54 0H23l1-261h32v101c10-23 28-34 59-34zm-8 174c40 0 45-34 45-75 0-40-5-75-45-74-42 0-51 32-51 76 0 43 10 73 51 73" id="bv"/><g id="M"><use transform="matrix(0.05,0,0,0.05,0,0)" xlink:href="#bt"/><use transform="matrix(0.05,0,0,0.05,12,0)" xlink:href="#aW"/><use transform="matrix(0.05,0,0,0.05,22,0)" xlink:href="#bc"/><use transform="matrix(0.05,0,0,0.05,31,0)" xlink:href="#bu"/><use transform="matrix(0.05,0,0,0.05,36.95,0)" xlink:href="#bv"/><use transform="matrix(0.05,0,0,0.05,46.95,0)" xlink:href="#bb"/><use transform="matrix(0.05,0,0,0.05,56.95,0)" xlink:href="#be"/><use transform="matrix(0.05,0,0,0.05,65.95,0)" xlink:href="#aW"/><use transform="matrix(0.05,0,0,0.05,75.95,0)" xlink:href="#ba"/></g><g id="N"><use transform="matrix(0.05,0,0,0.05,0,0)" xlink:href="#aY"/><use transform="matrix(0.05,0,0,0.05,14.950000000000001,0)" xlink:href="#bb"/><use transform="matrix(0.05,0,0,0.05,24.950000000000003,0)" xlink:href="#aV"/><use transform="matrix(0.05,0,0,0.05,29.950000000000003,0)" xlink:href="#bk"/><use transform="matrix(0.05,0,0,0.05,38.95,0)" xlink:href="#bl"/><use transform="matrix(0.05,0,0,0.05,48.95,0)" xlink:href="#aZ"/><use transform="matrix(0.05,0,0,0.05,52.900000000000006,0)" xlink:href="#aU"/><use transform="matrix(0.05,0,0,0.05,62.900000000000006,0)" xlink:href="#bs"/></g></defs></g></svg>